<svg xmlns="http://www.w3.org/2000/svg" xmlns:xlink="http://www.w3.org/1999/xlink" width="194" height="121"><defs><path id="a" d="M0 0h237v153H0z"/></defs><g fill="none" fill-rule="evenodd" transform="translate(-27 -17)"><mask id="b" fill="#00bcf1"><use xlink:href="#a"/></mask><g fill="#00bcf1" mask="url(#b)"><path d="M54.654 120.5c-5.471 0-10.037-1.62-13.569-4.815l-.712-.645v4.12l-13.362.001L27 55.501l13.362-.001.004 23.654.713-.644c3.532-3.199 8.099-4.821 13.575-4.822 12.168 0 21.344 10.061 21.346 23.404.001 6.635-2.248 12.66-6.332 16.964-3.942 4.155-9.271 6.444-15.006 6.444h-.008zm-2.929-35.486c-6.369.002-11.357 5.31-11.356 12.084.002 6.772 4.99 12.077 11.358 12.078 6.581-.003 11.178-4.97 11.177-12.082-.001-7.113-4.598-12.08-11.179-12.08zm89.229 35.486c-4.608 0-7.953-2.944-7.954-6.999 0-1.845.794-3.586 2.237-4.901 1.486-1.354 3.516-2.1 5.715-2.1 4.437 0 8.047 3.14 8.048 6.998 0 1.929-.809 3.7-2.278 4.988-1.48 1.3-3.527 2.014-5.766 2.014h-.002zm29.686-33.608c-.105-2.605-.213-5.3-.213-8.012-.002-9.562.288-19.708 2.408-29.13l.019-.09c.07-.344.13-.68.2-1.075.11-.634.207-1.182.362-1.65l.126-.477c.262-1.314.51-2.56.856-3.768a.406.406 0 0 0 .035-.023c1.438-.92 2.519-2.5 2.889-4.226.362-1.685.054-3.373-.872-4.758l-.093-.133c-1.562-2.145-3.662-3.28-6.072-3.28-.413 0-.837.034-1.247.098-2.586.337-4.05 2.11-4.85 3.078l-.365.477c-1.195 1.791-1.777 3.856-2.244 5.515l-.12.426a70.744 70.744 0 0 0-2.18 10.024c-1.23 7.283-1.977 15.048-2.22 23.084-.109 5.569-.127 11.543.478 17.487.416 5.076 1.197 11.68 3.55 17.726.955 2.841 2.132 5.12 3.583 6.952 1.03 1.405 2.506 3.166 4.8 4.312l.082.038c1.663.784 3.352 1.181 5.021 1.181 4.94 0 9.827-3.44 14.524-10.222 3.345-4.737 5.992-9.916 8.024-14.266.115 2.572.293 5.22.547 8.166 1.287 14.93 2.963 19.96 3.035 20.172.874 2.47 2.084 5.267 4.446 7.29l.148.121c1.324 1.028 2.869 1.571 4.466 1.571a6.545 6.545 0 0 0 4.66-1.922c1.423-1.424 2.008-2.781 1.955-4.538-.034-1.158-.363-2.355-1.023-3.686l-1.749-3.048-.07-.039c-.175-.227-1.372-2.165-2.194-13.382a1189.33 1189.33 0 0 0-.259-3.427c-.187-2.45-.374-4.906-.524-7.293-.194-6.274-.16-12.977.112-21.73.074-2.35.25-4.785.423-7.145.087-1.192.173-2.385.245-3.544l.67-5.363c.23-.711.475-1.423.729-2.158.32-.932.639-1.863.928-2.785.878-2.633 2.179-6.596 3.336-10.585.293-.963.622-1.913.969-2.92l.047-.133c.53-1.527 1.077-3.106 1.51-4.752 1.171-3.666 2.3-8.456.622-12.979-.7-2.098-2.355-3.71-4.424-4.31a6.64 6.64 0 0 0-1.847-.261c-1.642 0-3.262.605-4.56 1.703-3.156 2.658-4.459 6.44-5.24 9.431-.39 1.436-.642 2.818-.859 4.013-.172.738-.385 1.51-.604 2.31-.177.64-.35 1.268-.51 1.912-1.353 5.624-2.45 11.725-3.354 18.647-.21.713-.47 1.418-.777 2.247l-.321.874c-1.05 3.013-2.244 6.065-3.4 9.017l-.142.366a359.085 359.085 0 0 0-2.38 6.207c-3.763 10.28-7.186 17.817-11.103 24.441l-.085.145a42.788 42.788 0 0 1-2.46 3.994c-1.537 2.072-2.569 3.004-3.137 3.415 0 0-4.049-5.365-4.307-19.33m-67.379 34.406L85 78.508l14.313-.001 10.825 26.73 11.544-26.735L136 78.5l-25.327 58.998-14.403.002z"/></g></g></svg>
